# xmcd
#
# Track frame offsets:
# 150
# 17785
# 55129
#
# Disc length: 1140 seconds
#
#
# Revision: 0
# Processed by: cddbd v1.5.1PL2 Copyright (c) Steve Scherf et al.
# Submitted via: FreeRIP 2.944 
#
DISCID=1d047203
DTITLE=Deja Vu feat. Tasmin - That's My Goal CRr
DYEAR=2006
DGENRE=Trance
TTITLE0=That's My Goal (7" Definitive Mix)
TTITLE1=That's My Goal (12" Definitive Mix)
TTITLE2=That's My Goal (Definitive Dub)
EXTD=Rip by Siren Stern
EXTT0=
EXTT1=
EXTT2=
PLAYORDER=
